# Blender v2.82 (sub 7) OBJ File: ''
# www.blender.org
mtllib Box_Mini_Angled_Collider.mtl
g Box_Mini_Angled_Collider
v 0.500000 0.500000 -2.000000
v 0.500000 1.000000 0.000000
v 0.500000 0.000000 0.000000
v 0.500000 0.000000 -2.000000
v 0.000000 1.000000 0.000000
v 0.000000 0.000000 0.000000
v 0.000000 0.500000 -2.000000
v 0.000000 0.000000 -2.000000
vt 0.586300 0.431000
vt 0.586300 0.199200
vt 0.695400 0.226500
vt 0.640900 0.444700
vt 0.530100 0.199200
vt 0.530100 0.086800
vt 0.586300 0.086800
vt 0.530100 0.431000
vt 0.475600 0.444700
vt 0.421000 0.226500
vt 0.586300 0.487300
vt 0.530100 0.487300
vn 0.5913 0.4963 -0.6356
vn 0.5656 0.6500 0.5075
vn 0.5774 -0.5774 0.5774
vn 0.5774 -0.5774 -0.5774
vn -0.5656 0.6500 0.5075
vn -0.5774 -0.5774 0.5774
vn -0.5913 0.4963 -0.6356
vn -0.5774 -0.5774 -0.5774
usemtl None.013
s 1
f 1/1/1 2/2/2 3/3/3 4/4/4
f 2/2/2 5/5/5 6/6/6 3/7/3
f 5/5/5 7/8/7 8/9/8 6/10/6
f 7/8/7 1/1/1 4/11/4 8/12/8
f 7/8/7 5/5/5 2/2/2 1/1/1
f 4/11/4 3/7/3 6/10/6 8/12/8
