# Blender v2.82 (sub 7) OBJ File: ''
# www.blender.org
mtllib Pyramid_Full_Collider.mtl
g Pyramid_Full_Collider
v 2.000000 0.500000 -2.000000
v 3.000000 0.000000 -3.000000
v 0.000000 0.000000 -3.000000
v 1.000000 0.500000 -2.000000
v 2.000000 0.500000 -1.000000
v 1.000000 0.500000 -1.000000
v 0.000000 0.000000 0.000000
v 3.000000 0.000000 0.000000
vt 0.249000 0.523000
vt 0.375600 0.410500
vt 0.375600 0.748000
vt 0.249000 0.635500
vt 0.136500 0.523000
vt 0.136500 0.635500
vt 0.361500 0.762100
vt 0.024000 0.762100
vt 0.010000 0.748000
vt 0.010000 0.410500
vt 0.024000 0.396500
vt 0.361500 0.396500
vn 0.1753 0.9688 -0.1753
vn 0.7017 -0.1236 -0.7017
vn -0.7017 -0.1236 -0.7017
vn -0.1753 0.9688 -0.1753
vn 0.1753 0.9688 0.1753
vn -0.1753 0.9688 0.1753
vn -0.7017 -0.1236 0.7017
vn 0.7017 -0.1236 0.7017
usemtl None.014
s 1
f 1/1/1 2/2/2 3/3/3 4/4/4
f 5/5/5 1/1/1 4/4/4 6/6/6
f 4/4/4 3/7/3 7/8/7 6/6/6
f 6/6/6 7/9/7 8/10/8 5/5/5
f 5/5/5 8/11/8 2/12/2 1/1/1
f 2/12/2 8/11/8 7/9/7 3/7/3
