# Blender v2.82 (sub 7) OBJ File: ''
# www.blender.org
mtllib Quaterpipe_Corner_Outer_1_Collider.mtl
g Quaterpipe_Corner_Outer_1_Collider
v 0.000000 2.000000 0.000000
v 0.000000 2.000000 -1.025000
v 0.000000 -0.050000 0.000000
v 3.000000 -0.049999 -0.000001
v 2.614696 0.039263 -0.000001
v 2.244200 0.155543 -0.000001
v 1.902748 0.344371 -0.000001
v 1.603463 0.598490 -0.000001
v 1.357847 0.908136 -0.000001
v 1.175337 1.261408 -0.000001
v 1.062949 1.644730 -0.000001
v 1.025000 2.000000 0.000000
v -0.000001 1.644730 -1.062949
v -0.000001 1.261408 -1.175337
v -0.000001 0.908136 -1.357847
v -0.000001 0.598490 -1.603463
v -0.000001 0.344371 -1.902748
v -0.000001 0.155543 -2.244200
v -0.000001 0.039263 -2.614696
v -0.000001 -0.050000 -3.000000
v 0.991892 2.000000 -0.607828
v 0.863950 2.000000 -0.873950
v 1.373978 -0.050000 -2.692648
v 1.223530 0.039263 -2.363830
v 1.857595 0.039263 -1.867574
v 2.098410 -0.050000 -2.108389
v 1.078865 0.155543 -2.047648
v 1.626035 0.155543 -1.636014
v 0.945540 0.344371 -1.756253
v 1.412628 0.344371 -1.422606
v 0.828680 0.598490 -1.500843
v 1.225574 0.598490 -1.235554
v 0.732775 0.908136 -1.291234
v 1.072064 0.908136 -1.082043
v 0.661511 1.261408 -1.135480
v 0.957995 1.261408 -0.967975
v 0.617628 1.644730 -1.039568
v 0.887753 1.644730 -0.897732
v 0.602811 2.000000 -1.007182
v 1.024150 1.644730 -0.622771
v 1.119686 1.261408 -0.667022
v 1.274829 0.908136 -0.738883
v 1.483617 0.598490 -0.835591
v 1.738025 0.344371 -0.953430
v 2.028278 0.155543 -1.087872
v 2.343219 0.039263 -1.233750
v 2.670749 -0.050000 -1.385458
vt 0.005100 0.192300
vt 0.096400 0.189900
vt 0.005100 0.004800
vt 0.268200 0.005700
vt 0.232600 0.013000
vt 0.199100 0.027400
vt 0.168900 0.048300
vt 0.143300 0.074800
vt 0.123100 0.106000
vt 0.109200 0.140700
vt 0.102100 0.177600
vt 0.101200 0.189900
vt 0.101200 0.189900
vt 0.104800 0.159000
vt 0.115300 0.123000
vt 0.132400 0.089900
vt 0.155500 0.060900
vt 0.183500 0.037100
vt 0.215500 0.019400
vt 0.250300 0.008500
vt 0.286400 0.004800
vt 0.689700 0.893800
vt 0.633000 0.985400
vt 0.615400 0.980200
vt 0.096400 0.189900
vt 0.397600 0.577600
vt 0.407000 0.545100
vt 0.457000 0.552200
vt 0.453500 0.584300
vt 0.416500 0.511200
vt 0.460500 0.518500
vt 0.426000 0.475500
vt 0.464000 0.482700
vt 0.435000 0.438300
vt 0.467300 0.444800
vt 0.443100 0.399900
vt 0.470300 0.405300
vt 0.450200 0.361300
vt 0.472900 0.365400
vt 0.456200 0.324200
vt 0.475100 0.327100
vt 0.460900 0.296000
vt 0.476800 0.298500
vt 0.601700 0.967800
vt 0.596700 0.950000
vt 0.534000 0.319200
vt 0.526900 0.291400
vt 0.557800 0.281600
vt 0.566400 0.308600
vt 0.543000 0.354600
vt 0.578300 0.341300
vt 0.553800 0.391100
vt 0.592600 0.373700
vt 0.566300 0.427500
vt 0.609600 0.405400
vt 0.580200 0.463400
vt 0.628700 0.436500
vt 0.594900 0.498300
vt 0.649300 0.466900
vt 0.609700 0.532200
vt 0.670800 0.496900
vt 0.624200 0.565500
vt 0.692500 0.526800
vt 0.512400 0.584400
vt 0.510000 0.552100
vt 0.560000 0.546400
vt 0.568400 0.579700
vt 0.507300 0.518100
vt 0.551200 0.511900
vt 0.504600 0.482200
vt 0.542400 0.475800
vt 0.501800 0.444300
vt 0.533900 0.438200
vt 0.499100 0.404800
vt 0.526000 0.399700
vt 0.496700 0.365100
vt 0.519100 0.361200
vt 0.494500 0.327000
vt 0.513300 0.324200
vt 0.492800 0.298400
vt 0.508600 0.296000
vt 0.595900 0.929300
vt 0.596500 0.893800
vt 0.403800 0.308500
vt 0.412400 0.281500
vt 0.443200 0.291400
vt 0.436100 0.319100
vt 0.392000 0.341100
vt 0.426900 0.354400
vt 0.377700 0.373400
vt 0.416000 0.390800
vt 0.361200 0.405100
vt 0.403100 0.427000
vt 0.342700 0.435600
vt 0.388800 0.462400
vt 0.322700 0.465100
vt 0.373500 0.496600
vt 0.301700 0.493900
vt 0.357800 0.529700
vt 0.280400 0.522300
vt 0.342300 0.561800
vt 0.689700 0.987100
vt 0.654200 0.987500
vn -0.5774 0.5774 0.5774
vn -0.5754 0.6012 -0.5545
vn -0.5773 -0.5774 0.5774
vn 0.8902 -0.0927 0.4461
vn 0.1957 0.7101 0.6764
vn 0.2992 0.6960 0.6527
vn 0.4414 0.6251 0.6437
vn 0.5604 0.5237 0.6416
vn 0.6497 0.4015 0.6455
vn 0.7082 0.2691 0.6527
vn 0.7377 0.1379 0.6608
vn 0.5620 0.6004 0.5690
vn -0.6708 0.1357 -0.7291
vn -0.6619 0.2652 -0.7012
vn -0.6533 0.3968 -0.6448
vn -0.6477 0.5190 -0.5577
vn -0.6481 0.6212 -0.4405
vn -0.6554 0.6934 -0.2994
vn -0.6779 0.7086 -0.1959
vn -0.4506 -0.0932 -0.8879
vn 0.6896 0.7017 -0.1792
vn 0.5257 0.6783 -0.5134
vn 0.4278 -0.1055 -0.8977
vn 0.1152 0.9625 -0.2456
vn 0.2031 0.9583 -0.2010
vn 0.7053 -0.1174 -0.6991
vn 0.1615 0.9169 -0.3649
vn 0.2976 0.9082 -0.2941
vn 0.2207 0.8151 -0.5356
vn 0.4249 0.8024 -0.4191
vn 0.2569 0.6825 -0.6843
vn 0.5294 0.6697 -0.5209
vn 0.2704 0.5271 -0.8056
vn 0.6103 0.5185 -0.5989
vn 0.2666 0.3571 -0.8952
vn 0.6683 0.3542 -0.6542
vn 0.2560 0.1850 -0.9488
vn 0.7028 0.1853 -0.6868
vn 0.1796 0.6973 -0.6939
vn 0.9488 0.1838 -0.2569
vn 0.8957 0.3550 -0.2676
vn 0.8067 0.5247 -0.2717
vn 0.6859 0.6803 -0.2585
vn 0.5374 0.8135 -0.2222
vn 0.3665 0.9160 -0.1629
vn 0.2465 0.9622 -0.1161
vn 0.8967 -0.1065 -0.4297
usemtl None.027
s 1
f 1/1/1 2/2/2 3/3/3
f 3/3/3 4/4/4 5/5/5 6/6/6 7/7/7 8/8/8 9/9/9 10/10/10 11/11/11 12/12/12
f 2/13/2 13/14/13 14/15/14 15/16/15 16/17/16 17/18/17 18/19/18 19/20/19 20/21/20 3/3/3
f 1/22/1 21/23/21 22/24/22
f 12/25/12 1/1/1 3/3/3
f 23/26/23 24/27/24 25/28/25 26/29/26
f 24/27/24 27/30/27 28/31/28 25/28/25
f 27/30/27 29/32/29 30/33/30 28/31/28
f 29/32/29 31/34/31 32/35/32 30/33/30
f 31/34/31 33/36/33 34/37/34 32/35/32
f 33/36/33 35/38/35 36/39/36 34/37/34
f 35/38/35 37/40/37 38/41/38 36/39/36
f 37/40/37 39/42/39 22/43/22 38/41/38
f 1/22/1 22/44/22 39/45/39
f 40/46/40 21/47/21 12/48/12 11/49/11
f 41/50/41 40/46/40 11/49/11 10/51/10
f 42/52/42 41/50/41 10/51/10 9/53/9
f 43/54/43 42/52/42 9/53/9 8/55/8
f 44/56/44 43/54/43 8/55/8 7/57/7
f 45/58/45 44/56/44 7/57/7 6/59/6
f 46/60/46 45/58/45 6/59/6 5/61/5
f 47/62/47 46/60/46 5/61/5 4/63/4
f 26/64/26 25/65/25 46/66/46 47/67/47
f 25/65/25 28/68/28 45/69/45 46/66/46
f 28/68/28 30/70/30 44/71/44 45/69/45
f 30/70/30 32/72/32 43/73/43 44/71/44
f 32/72/32 34/74/34 42/75/42 43/73/43
f 34/74/34 36/76/36 41/77/41 42/75/42
f 36/76/36 38/78/38 40/79/40 41/77/41
f 38/78/38 22/80/22 21/81/21 40/79/40
f 1/22/1 39/82/39 2/83/2
f 13/84/13 2/85/2 39/86/39 37/87/37
f 14/88/14 13/84/13 37/87/37 35/89/35
f 15/90/15 14/88/14 35/89/35 33/91/33
f 16/92/16 15/90/15 33/91/33 31/93/31
f 17/94/17 16/92/16 31/93/31 29/95/29
f 18/96/18 17/94/17 29/95/29 27/97/27
f 19/98/19 18/96/18 27/97/27 24/99/24
f 20/100/20 19/98/19 24/99/24 23/101/23
f 1/22/1 12/102/12 21/103/21
f 4/63/4 3/3/3 20/100/20 23/26/23 26/64/26 47/62/47
