# Blender v2.82 (sub 7) OBJ File: ''
# www.blender.org
mtllib Steps_Mini_Collider.mtl
g Steps_Mini_Collider
v 0.000000 0.250000 -1.500000
v 0.000000 0.250000 -2.000000
v 0.000000 0.000000 -2.000000
v 0.000000 0.000000 0.000000
v 2.000000 0.250000 -2.000000
v 2.000000 0.000000 -2.000000
v 2.000000 1.000000 0.000000
v 0.000000 1.000000 0.000000
v 2.000000 0.000000 0.000000
v 2.000000 1.000000 -0.500000
v 2.000000 0.750000 -0.500000
v 0.000000 0.500000 -1.000000
v 0.000000 0.500000 -1.500000
v 0.000000 0.750000 -0.500000
v 0.000000 0.750000 -1.000000
v 0.000000 1.000000 -0.500000
v 2.000000 0.500000 -1.500000
v 2.000000 0.500000 -1.000000
v 2.000000 0.250000 -1.500000
v 2.000000 0.750000 -1.000000
vt 0.598800 0.035900
vt 0.542600 0.035900
vt 0.542600 0.007800
vt 0.767600 0.007800
vt 0.461200 0.770600
vt 0.461200 0.993400
vt 0.433400 0.993400
vt 0.433400 0.770600
vt 0.767500 0.993400
vt 0.767500 0.770600
vt 0.878900 0.770600
vt 0.878900 0.993400
vt 0.711300 0.120300
vt 0.767600 0.120300
vt 0.767600 0.007800
vt 0.711300 0.092200
vt 0.655100 0.064100
vt 0.598800 0.064100
vt 0.711300 0.092200
vt 0.655100 0.092200
vt 0.767600 0.120300
vt 0.711300 0.120300
vt 0.598800 0.064100
vt 0.655100 0.064100
vt 0.598800 0.035900
vt 0.684000 0.770600
vt 0.711800 0.770600
vt 0.711800 0.993400
vt 0.684000 0.993400
vt 0.655100 0.092200
vt 0.628300 0.993400
vt 0.628300 0.770600
vt 0.600400 0.770600
vt 0.600400 0.993400
vt 0.544800 0.993400
vt 0.544800 0.770600
vt 0.516900 0.770600
vt 0.516900 0.993400
vt 0.542600 0.035900
vt 0.542600 0.007800
vn -0.9045 0.3015 -0.3015
vn -0.5774 0.5774 -0.5774
vn -0.5774 -0.5774 -0.5774
vn -0.5774 -0.5774 0.5774
vn 0.5774 0.5774 -0.5774
vn 0.5774 -0.5774 -0.5774
vn 0.5774 0.5774 0.5774
vn -0.5774 0.5774 0.5774
vn 0.5774 -0.5774 0.5774
vn 0.9045 0.3015 -0.3015
usemtl None.024
s 1
f 1/1/1 2/2/2 3/3/3 4/4/4
f 2/5/2 5/6/5 6/7/6 3/8/3
f 7/9/7 8/10/8 4/11/4 9/12/9
f 10/13/5 7/14/7 9/15/9 11/16/10
f 12/17/1 13/18/2 1/1/1 4/4/4
f 14/19/1 15/20/2 12/17/1 4/4/4
f 8/21/8 16/22/2 14/19/1 4/4/4
f 17/23/5 18/24/10 9/15/9 19/25/10
f 14/26/1 16/27/2 10/28/5 11/29/10
f 20/30/5 11/16/10 9/15/9 18/24/10
f 11/29/10 20/31/5 15/32/2 14/26/1
f 12/33/1 15/32/2 20/31/5 18/34/10
f 18/34/10 17/35/5 13/36/2 12/33/1
f 7/9/7 10/28/5 16/27/2 8/10/8
f 1/37/1 13/36/2 17/35/5 19/38/10
f 19/38/10 5/6/5 2/5/2 1/37/1
f 5/39/5 19/25/10 9/15/9 6/40/6
f 4/11/4 3/8/3 6/40/6 9/12/9
