# Blender v2.82 (sub 7) OBJ File: ''
# www.blender.org
mtllib Box_Angled_Grind.mtl
g Box_Angled_Grind
v 0.000000 2.000000 0.000000
v 0.000000 1.000000 -2.000000
v 0.500000 1.000000 -2.000000
v 0.500000 2.000000 0.000000
v 0.000000 1.864308 0.000000
v 0.000000 0.864308 -2.000000
v 0.500000 0.864308 -2.000000
v 0.500000 1.864308 0.000000
v 0.114543 1.000000 -2.000000
v 0.385457 1.000000 -2.000000
v 0.114543 0.864308 -2.000000
v 0.114543 1.864308 0.000000
v 0.114543 2.000000 0.000000
v 0.385457 2.000000 0.000000
v 0.385457 1.864308 0.000000
v 0.385457 0.864308 -2.000000
v 0.000000 1.948174 -0.103652
v 0.000000 1.812482 -0.103652
v 0.114543 1.812482 -0.103652
v 0.114543 1.948174 -0.103652
v 0.500000 1.948226 -0.103547
v 0.500000 1.812534 -0.103547
v 0.385457 1.948226 -0.103547
v 0.385457 1.812534 -0.103547
vt 0.877300 0.557400
vt 0.877300 0.538633
vt 0.877300 0.543325
vt 0.877300 0.557400
vt 0.638645 0.557400
vt 0.638645 0.557400
vt 0.625600 0.557400
vt 0.625600 0.557400
vt 0.638631 0.519867
vt 0.638631 0.529250
vt 0.638645 0.543325
vt 0.638645 0.538633
vt 0.625600 0.543325
vt 0.625600 0.538633
vt 0.638631 0.501100
vt 0.877300 0.501100
vt 0.877300 0.519867
vt 0.625600 0.501100
vt 0.625600 0.519867
vt 0.625600 0.529250
vt 0.625600 0.501100
vt 0.638631 0.501100
vt 0.877300 0.501100
vt 0.877300 0.529250
vn -0.6057 0.4183 -0.6768
vn 0.6057 0.4183 -0.6768
vn 0.5568 -0.7066 -0.4367
vn -0.5568 -0.7066 -0.4367
vn -0.7071 0.6325 -0.3162
vn -0.7071 -0.6325 0.3162
vn -0.6057 -0.4183 0.6768
vn -0.5568 0.7066 0.4367
vn -0.1940 0.7392 -0.6450
vn -0.4317 -0.8948 0.1139
vn 0.4320 -0.8947 0.1139
vn 0.1943 0.7391 -0.6450
vn -0.0000 -0.5257 0.8507
vn 0.0000 0.8507 0.5257
vn 0.7071 0.6325 -0.3162
vn 0.5568 0.7066 0.4367
vn 0.6057 -0.4183 0.6768
vn 0.7071 -0.6325 0.3162
usemtl None
s 1
f 2/1/1 9/2/2 11/3/3 6/4/4
f 17/5/5 18/6/6 5/7/7 1/8/8
f 23/9/9 24/10/10 19/11/11 20/12/12
f 12/13/13 13/14/14 1/8/8 5/7/7
f 20/12/12 9/2/2 2/1/1 17/5/5
f 19/11/11 18/6/6 6/4/4 11/3/3
f 21/15/15 3/16/2 10/17/1 23/9/9
f 4/18/16 14/19/14 15/20/13 8/21/17
f 21/15/15 22/22/18 7/23/3 3/16/2
f 3/16/2 7/23/3 16/24/4 10/17/1
f 23/9/9 10/17/1 16/24/4 24/10/10
f 22/22/18 24/10/10 16/24/4 7/23/3
f 12/13/13 5/7/7 18/6/6 19/11/11
f 13/14/14 20/12/12 17/5/5 1/8/8
f 11/3/3 9/2/2 20/12/12 19/11/11
f 2/1/1 6/4/4 18/6/6 17/5/5
f 8/21/17 15/20/13 24/10/10 22/22/18
f 14/19/14 23/9/9 20/12/12 13/14/14
f 4/18/16 8/21/17 22/22/18 21/15/15
f 4/18/16 21/15/15 23/9/9 14/19/14
f 24/10/10 15/20/13 12/13/13 19/11/11
f 15/20/13 14/19/14 13/14/14 12/13/13
