# Blender v2.82 (sub 7) OBJ File: ''
# www.blender.org
mtllib Box_Mini_Angled_Grind.mtl
g Box_Mini_Angled_Collider
v 0.500000 0.500000 -2.000000
v 0.500000 1.000000 0.000000
v 0.000000 1.000000 0.000000
v 0.000000 0.500000 -2.000000
v 0.500000 0.900000 0.000000
v 0.000000 0.400000 -2.000000
v 0.500000 0.400000 -2.000000
v 0.000000 0.900000 0.000000
v 0.100000 0.421502 -1.913991
v 0.100000 0.873989 -0.104045
v 0.400000 0.521502 -1.913991
v 0.100000 0.521502 -1.913991
v 0.400000 0.421502 -1.913991
v 0.400000 0.873989 -0.104045
v 0.400000 0.973989 -0.104045
v 0.100000 0.973989 -0.104045
vt 0.530100 0.431000
vt 0.586300 0.431000
vt 0.586300 0.431000
vt 0.530100 0.431000
vt 0.530100 0.211259
vt 0.530100 0.199200
vt 0.586300 0.199200
vt 0.586300 0.211259
vt 0.586300 0.199200
vt 0.530100 0.199200
vt 0.530100 0.211259
vt 0.586300 0.211259
vt 0.530100 0.421032
vt 0.586300 0.421032
vt 0.530100 0.211259
vt 0.530100 0.421032
vt 0.530100 0.421032
vt 0.530100 0.211259
vt 0.530100 0.421032
vt 0.586300 0.421032
vt 0.586300 0.421032
vt 0.586300 0.211259
vt 0.586300 0.211259
vt 0.586300 0.421032
vn -0.5913 0.4963 -0.6356
vn 0.5913 0.4963 -0.6356
vn 0.5656 -0.6500 -0.5075
vn -0.5656 -0.6500 -0.5075
vn 0.2420 0.8344 -0.4953
vn -0.5656 0.6500 0.5075
vn 0.5656 0.6500 0.5075
vn -0.2420 0.8344 -0.4953
vn 0.5913 -0.4963 0.6356
vn -0.5913 -0.4963 0.6356
vn 0.3677 -0.9259 -0.0867
vn -0.3677 -0.9259 -0.0867
vn 0.3677 0.9259 0.0867
vn -0.3677 0.9259 0.0867
vn 0.2420 -0.8344 0.4953
vn -0.2420 -0.8344 0.4953
usemtl None.002
s 1
f 4/1/1 1/2/2 7/3/3 6/4/4
f 16/5/5 3/6/6 2/7/7 15/8/8
f 5/9/9 8/10/10 10/11/11 14/12/12
f 2/7/7 3/6/6 8/10/10 5/9/9
f 4/1/1 12/13/13 11/14/14 1/2/2
f 3/15/6 4/16/1 6/17/4 8/18/10
f 12/13/13 16/5/5 10/11/11 9/19/15
f 11/14/14 12/13/13 9/19/15 13/20/16
f 16/5/5 15/8/8 14/12/12 10/11/11
f 4/16/1 3/15/6 16/5/5 12/13/13
f 15/8/8 11/14/14 13/20/16 14/12/12
f 1/21/2 2/22/7 5/23/9 7/24/3
f 11/14/14 15/8/8 2/22/7 1/21/2
f 10/11/11 8/18/10 6/17/4 9/19/15
f 7/24/3 5/23/9 14/12/12 13/20/16
f 7/3/3 13/20/16 9/19/15 6/4/4
