# Blender v2.82 (sub 7) OBJ File: ''
# www.blender.org
mtllib Box_Grind.mtl
g Box_Collider
v 0.000000 1.000000 0.000000
v 0.000000 1.000000 -2.000000
v 0.500000 1.000000 -2.000000
v 0.500000 1.000000 0.000000
v 0.000000 0.900000 0.000000
v 0.000000 0.900000 -2.000000
v 0.500000 0.900000 -2.000000
v 0.500000 0.900000 0.000000
v 0.100000 1.000000 -2.000000
v 0.100000 1.000000 0.000000
v 0.100000 0.900000 0.000000
v 0.100000 0.900000 -2.000000
v 0.400000 1.000000 -2.000000
v 0.400000 1.000000 0.000000
v 0.400000 0.900000 0.000000
v 0.400000 0.900000 -2.000000
v 0.000000 1.000000 -0.100000
v 0.400000 0.900000 -1.900000
v 0.500000 1.000000 -0.100000
v 0.100000 0.900000 -1.900000
v 0.500000 0.900000 -0.100000
v 0.000000 0.900000 -0.100000
v 0.100000 1.000000 -0.100000
v 0.400000 1.000000 -0.100000
v 0.000000 1.000000 -1.900000
v 0.500000 0.900000 -1.900000
v 0.400000 0.900000 -0.100000
v 0.500000 1.000000 -1.900000
v 0.100000 0.900000 -0.100000
v 0.000000 0.900000 -1.900000
v 0.100000 1.000000 -1.900000
v 0.400000 1.000000 -1.900000
vt 0.353300 0.199200
vt 0.353300 0.199200
vt 0.353300 0.199200
vt 0.353300 0.199200
vt 0.128300 0.199200
vt 0.128300 0.199200
vt 0.128300 0.199200
vt 0.128300 0.199200
vt 0.128300 0.143000
vt 0.128300 0.143000
vt 0.128300 0.143000
vt 0.128300 0.143000
vt 0.353300 0.143000
vt 0.353300 0.143000
vt 0.353300 0.143000
vt 0.353300 0.143000
vt 0.353300 0.199200
vt 0.353300 0.199200
vt 0.353300 0.199200
vt 0.128300 0.143000
vt 0.128300 0.143000
vt 0.353300 0.143000
vt 0.353300 0.143000
vt 0.128300 0.143000
vt 0.128300 0.199200
vt 0.128300 0.199200
vt 0.128300 0.199200
vt 0.353300 0.143000
vt 0.128300 0.199200
vt 0.128300 0.143000
vt 0.353300 0.143000
vt 0.353300 0.199200
vn 0.3015 0.9045 0.3015
vn 0.0000 0.7071 -0.7071
vn -0.5774 0.5774 -0.5774
vn -0.7071 0.7071 0.0000
vn 0.0000 0.7071 0.7071
vn -0.5774 0.5774 0.5774
vn -0.5774 -0.5774 0.5774
vn 0.0000 -0.7071 0.7071
vn 0.7071 0.7071 0.0000
vn 0.5774 0.5774 0.5774
vn 0.5774 -0.5774 0.5774
vn 0.7071 -0.7071 -0.0000
vn 0.5774 0.5774 -0.5774
vn 0.5774 -0.5774 -0.5774
vn 0.0000 -0.7071 -0.7071
vn -0.5774 -0.5774 -0.5774
vn -0.7071 -0.7071 -0.0000
vn -0.3015 0.9045 0.3015
vn -0.3015 0.9045 -0.3015
vn 0.3015 0.9045 -0.3015
vn 0.3015 -0.9045 -0.3015
vn -0.3015 -0.9045 -0.3015
vn -0.3015 -0.9045 0.3015
vn 0.3015 -0.9045 0.3015
usemtl None.001
s 1
f 31/1/1 9/2/2 2/3/3 25/4/4
f 10/5/5 1/6/6 5/7/7 11/8/8
f 19/9/9 4/10/10 8/11/11 21/12/12
f 13/13/2 3/14/13 7/15/14 16/16/15
f 25/4/4 2/3/3 6/17/16 30/18/17
f 2/3/3 9/2/2 12/19/15 6/17/16
f 14/20/5 10/5/5 11/8/8 15/21/8
f 32/22/18 13/13/2 9/2/2 31/1/1
f 28/23/9 3/14/13 13/13/2 32/22/18
f 4/10/10 14/20/5 15/21/8 8/11/11
f 9/2/2 13/13/2 16/16/15 12/19/15
f 4/10/10 19/9/9 24/24/19 14/20/5
f 14/20/5 24/24/19 23/25/20 10/5/5
f 1/6/6 17/26/4 22/27/17 5/7/7
f 28/23/9 19/9/9 21/12/12 26/28/12
f 10/5/5 23/25/20 17/26/4 1/6/6
f 11/8/8 29/29/21 27/30/22 15/21/8
f 24/24/19 32/22/18 18/31/23 27/30/22
f 23/25/20 24/24/19 27/30/22 29/29/21
f 3/14/13 28/23/9 26/28/12 7/15/14
f 19/9/9 28/23/9 32/22/18 24/24/19
f 31/1/1 23/25/20 29/29/21 20/32/24
f 17/26/4 25/4/4 30/18/17 22/27/17
f 23/25/20 31/1/1 25/4/4 17/26/4
f 32/22/18 31/1/1 20/32/24 18/31/23
f 22/27/17 30/18/17 20/32/24 29/29/21
f 21/12/12 27/30/22 18/31/23 26/28/12
f 12/19/15 16/16/15 18/31/23 20/32/24
f 15/21/8 27/30/22 21/12/12 8/11/11
f 22/27/17 29/29/21 11/8/8 5/7/7
f 12/19/15 20/32/24 30/18/17 6/17/16
f 26/28/12 18/31/23 16/16/15 7/15/14
