# Blender v2.82 (sub 7) OBJ File: ''
# www.blender.org
mtllib Pyramid_Quater_Grind.mtl
g Pyramid_Quater_Collider
v 0.000000 0.000000 -2.000000
v 1.000000 0.500000 -2.000000
v 1.900000 0.400000 -1.900000
v 2.000000 0.500000 -2.000000
v 2.000000 0.500000 -1.000000
v 2.000000 0.000000 0.000000
v 1.900000 0.400000 -1.000000
v 1.900000 0.500000 -2.000000
v 1.900000 0.500000 -1.000000
v 1.900000 0.000000 0.000000
v 1.000000 0.500000 -1.900000
v 0.000000 0.000000 -1.900000
v 2.000000 0.500000 -1.900000
v 1.000000 0.400000 -1.900000
v 1.900000 0.500000 -1.900000
v 2.000000 0.400000 -2.000000
v 1.000000 0.400000 -2.000000
v 2.000000 0.400000 -1.000000
v 1.900000 0.400000 -2.000000
v 2.000000 0.400000 -1.900000
vt 0.249000 0.523100
vt 0.249000 0.523100
vt 0.375600 0.523100
vt 0.136500 0.523100
vt 0.249000 0.523100
vt 0.249000 0.523100
vt 0.136500 0.523100
vt 0.136500 0.523100
vt 0.136500 0.523100
vt 0.136500 0.523100
vt 0.136500 0.635600
vt 0.136500 0.635600
vt 0.136500 0.635600
vt 0.136500 0.762100
vt 0.136500 0.762100
vt 0.136500 0.635600
vt 0.136500 0.523100
vt 0.136500 0.523100
vt 0.136500 0.523100
vt 0.375600 0.523100
vn -0.1728 0.7321 -0.6589
vn 0.1246 -0.6470 -0.7523
vn -0.7695 -0.3455 -0.5371
vn -0.3015 0.9045 0.3015
vn -0.1728 0.7321 0.6589
vn 0.1246 -0.6470 0.7523
vn -0.3015 -0.9045 0.3015
vn -0.0000 -0.7071 -0.7071
vn 0.0000 0.7071 -0.7071
vn 0.7071 -0.7071 -0.0000
vn 0.7523 -0.6470 -0.1246
vn -0.7523 -0.6470 -0.1246
vn -0.6589 0.7321 0.1728
vn -0.5371 -0.3455 0.7695
vn 0.5371 -0.3455 0.7695
vn 0.6589 0.7321 0.1728
vn 0.7071 0.7071 0.0000
vn 0.5774 -0.5774 -0.5774
vn 0.5774 0.5774 -0.5774
vn -0.7695 -0.3455 0.5371
usemtl None.006
s 1
f 2/1/1 17/2/2 1/3/3
f 15/4/4 11/5/5 14/6/6 3/7/7
f 19/8/8 17/2/2 2/1/1 8/9/9
f 20/10/10 18/11/11 7/12/12 3/7/7
f 9/13/13 10/14/14 6/15/15 5/16/16
f 20/10/10 13/17/17 5/16/16 18/11/11
f 6/15/15 10/14/14 7/12/12 18/11/11
f 13/17/17 15/4/4 9/13/13 5/16/16
f 16/18/18 19/8/8 8/9/9 4/19/19
f 4/19/19 8/9/9 15/4/4 13/17/17
f 16/18/18 4/19/19 13/17/17 20/10/10
f 8/9/9 2/1/1 11/5/5 15/4/4
f 2/1/1 1/3/3 12/20/20 11/5/5
f 11/5/5 12/20/20 14/6/6
f 18/11/11 5/16/16 6/15/15
f 9/13/13 15/4/4 3/7/7 7/12/12
f 10/14/14 9/13/13 7/12/12
f 20/10/10 3/7/7 19/8/8 16/18/18
f 3/7/7 14/6/6 17/2/2 19/8/8
f 12/20/20 1/3/3 17/2/2 14/6/6
