# Blender v2.82 (sub 7) OBJ File: ''
# www.blender.org
mtllib Pyramid_Half_Grind.mtl
g Pyramid_Half_Collider
v 2.000000 0.500000 -2.000000
v 2.000000 0.000000 -3.000000
v 2.000000 0.400000 -1.000000
v 2.000000 0.500000 -1.000000
v 2.000000 0.000000 0.000000
v 2.000000 0.400000 -2.000000
v 1.900000 0.500000 -2.000000
v 1.900000 0.000000 -3.000000
v 1.900000 0.500000 -1.000000
v 1.900000 0.000000 0.000000
v 1.900000 0.400000 -2.000000
v 1.900000 0.400000 -1.000000
vt 0.136500 0.523000
vt 0.136500 0.523000
vt 0.249000 0.523000
vt 0.249000 0.523000
vt 0.136500 0.523000
vt 0.010000 0.523000
vt 0.010000 0.523000
vt 0.249000 0.523000
vt 0.375600 0.523000
vt 0.375600 0.523000
vt 0.136500 0.523000
vt 0.249000 0.523000
vn 1.0000 0.0000 0.0000
vn -0.7790 -0.5822 -0.2329
vn 0.0000 -0.9285 -0.3714
vn 0.0000 -0.4097 0.9122
vn -0.5371 -0.3455 0.7695
vn 0.0000 -0.9285 0.3714
vn -0.7790 -0.5822 0.2329
vn -0.5371 -0.3455 -0.7695
vn 0.0000 -0.4097 -0.9122
vn -0.5761 0.7311 0.3655
vn 0.0000 0.8944 0.4472
vn 0.0000 -1.0000 -0.0000
vn -0.7071 -0.7071 -0.0000
vn 0.0000 1.0000 0.0000
vn -0.7071 0.7071 0.0000
vn 0.0000 0.8944 -0.4472
vn -0.5761 0.7311 -0.3655
usemtl None.005
s 1
f 4/1/1 3/2/1 6/3/1 1/4/1
f 12/5/2 3/2/3 5/6/4 10/7/5
f 6/3/6 11/8/7 8/9/8 2/10/9
f 9/11/10 10/7/5 5/6/4 4/1/11
f 3/2/12 12/5/13 11/8/13 6/3/12
f 4/1/14 1/4/14 7/12/15 9/11/15
f 1/4/16 2/10/9 8/9/8 7/12/17
f 8/9/8 11/8/7 7/12/17
f 9/11/10 12/5/2 10/7/5
f 5/6/1 3/2/1 4/1/1
f 1/4/1 6/3/1 2/10/1
f 7/12/15 11/8/13 12/5/13 9/11/15
