# Blender v2.82 (sub 7) OBJ File: ''
# www.blender.org
mtllib Quaterpipe_Mini_Grind.mtl
g Quaterpipe_Mini_Grind
v 2.000000 1.000000 -1.025000
v 2.000000 0.911657 -0.925000
v -0.000000 0.911657 -0.925000
v 0.000000 0.999999 -1.025000
v -0.000000 0.911657 -1.103297
v 2.000000 0.911657 -1.103297
v 2.000000 1.000000 -0.925000
v 0.000000 0.999999 -0.925000
vt 0.803600 0.490140
vt 0.803600 0.479400
vt 0.991300 0.479400
vt 0.991300 0.490140
vt 0.792800 0.379700
vt 0.792800 0.379700
vt 0.792800 0.567200
vt 0.792800 0.567200
vt 0.803600 0.490140
vt 0.991300 0.490140
vn -0.5485 -0.3431 -0.7625
vn -0.6254 0.7116 -0.3202
vn 0.6254 0.7116 -0.3202
vn 0.5485 -0.3431 -0.7625
vn 0.5774 0.5774 0.5773
vn -0.5773 0.5774 0.5774
vn -0.5774 -0.5773 0.5774
vn 0.5773 -0.5774 0.5774
usemtl (null)
s 1
f 5/1/1 4/2/2 1/3/3 6/4/4
f 7/5/5 1/6/3 4/7/2 8/8/6
f 4/7/2 5/1/1 3/9/7 8/8/6
f 2/10/8 6/4/4 1/3/3 7/5/5
f 7/5/5 8/8/6 3/9/7 2/10/8
f 5/1/1 6/4/4 2/10/8 3/9/7
