# Blender v2.82 (sub 7) OBJ File: ''
# www.blender.org
mtllib Quaterpipe_Mini_Corner_Outer_Grind.mtl
g Quaterpipe_Mini_Corner_Outer_Grind
v 1.025001 1.000000 0.000000
v 1.003298 0.911657 -0.000000
v 0.925001 1.000000 0.000000
v 0.000000 0.999999 -0.925000
v -0.000000 0.911657 -1.003297
v 0.000000 0.999999 -1.025000
v -0.000000 0.911657 -1.103297
v 1.103298 0.911657 -0.000000
vt 0.649720 0.234980
vt 0.644400 0.244600
vt 0.504900 0.244600
vt 0.499580 0.234980
vt 0.649720 0.234980
vt 0.644400 0.244600
vt 0.504900 0.244600
vt 0.499580 0.234980
vn -0.2774 -0.2965 -0.9138
vn -0.4273 0.7557 -0.4962
vn 0.4962 0.7557 0.4273
vn 0.9138 -0.2965 0.2774
vn -0.7003 -0.6970 0.1543
vn -0.7623 0.4630 0.4523
vn -0.4523 0.4630 0.7623
vn -0.1543 -0.6970 0.7003
usemtl (null)
s 1
f 7/1/1 6/2/2 1/3/3 8/4/4
f 7/1/1 5/5/5 4/6/6 6/2/2
f 1/3/3 3/7/7 2/8/8 8/4/4
f 6/2/2 4/6/6 3/7/7 1/3/3
f 8/4/4 2/8/8 5/5/5 7/1/1
f 5/5/5 2/8/8 3/7/7 4/6/6
