# Blender v2.82 (sub 7) OBJ File: ''
# www.blender.org
mtllib Quaterpipe_Grind.mtl
g Quaterpipe_Grind
v 2.000000 2.000000 -1.025000
v 0.000000 1.928946 -0.925000
v 2.000000 1.928946 -0.925000
v 0.000000 2.000000 -1.025000
v 2.000000 2.000000 -0.925000
v 0.000000 2.000000 -0.925000
v -0.000000 1.928946 -1.032589
v 2.000000 1.928946 -1.032589
vt 0.315440 0.793400
vt 0.309200 0.793400
vt 0.309200 0.605700
vt 0.315440 0.605700
vt 0.796700 0.672000
vt 0.796700 0.672000
vt 0.609200 0.672000
vt 0.609200 0.672000
vt 0.609200 0.672000
vt 0.796700 0.672000
vn -0.5720 -0.5484 -0.6101
vn -0.5832 0.6042 -0.5431
vn 0.5832 0.6042 -0.5431
vn 0.5720 -0.5484 -0.6101
vn 0.5774 0.5773 0.5774
vn -0.5773 0.5774 0.5774
vn -0.5774 -0.5774 0.5774
vn 0.5774 -0.5774 0.5773
usemtl (null)
s 1
f 7/1/1 4/2/2 1/3/3 8/4/4
f 5/5/5 1/6/3 4/7/2 6/8/6
f 7/1/1 2/9/7 6/8/6 4/7/2
f 3/10/8 8/4/4 1/6/3 5/5/5
f 7/1/1 8/4/4 3/10/8 2/9/7
f 5/5/5 6/8/6 2/9/7 3/10/8
