# Blender v2.82 (sub 7) OBJ File: ''
# www.blender.org
mtllib Quaterpipe_Corner_Inner_Grind.mtl
g Quaterpipe_Corner_Inner_Grind
v 2.244874 2.000000 -1.175337
v 3.000000 2.000000 -1.025001
v 1.603464 2.000000 -1.603464
v 1.175338 2.000000 -2.244873
v 1.025000 2.000000 -3.000000
v 3.000000 1.928946 -1.032590
v 2.247644 1.928946 -1.182349
v 1.608831 1.928946 -1.608830
v 1.182350 1.928946 -2.247643
v 1.032590 1.928946 -3.000000
v 3.000000 2.000000 -0.925001
v 3.000000 1.928946 -0.932590
v 2.192422 1.918578 -1.099626
v 2.189652 1.989632 -1.092614
v 1.553610 1.918578 -1.526107
v 1.548243 1.989632 -1.520741
v 1.084807 1.918545 -2.228224
v 1.077794 1.989599 -2.225455
v 0.932590 1.928946 -3.000000
v 0.925000 2.000000 -3.000000
vt 0.035200 0.287620
vt 0.028040 0.324200
vt 0.021800 0.323200
vt 0.029000 0.286200
vt 0.000000 0.000000
vt 0.000000 0.000000
vt 0.000000 0.000000
vt 0.000000 0.000000
vt 0.022120 0.398360
vt 0.023820 0.435640
vt 0.017500 0.436200
vt 0.015800 0.398400
vt 0.000000 0.000000
vt 0.000000 0.000000
vt 0.000000 0.000000
vt 0.000000 0.000000
vt 0.029900 0.511300
vt 0.036200 0.509800
vt 0.036200 0.509800
vt 0.029900 0.511300
vt 0.029000 0.286200
vt 0.035200 0.287620
vt 0.028040 0.324200
vt 0.021800 0.323200
vt 0.017300 0.360600
vt 0.023580 0.361100
vt 0.000000 0.000000
vt 0.000000 0.000000
vt 0.000000 0.000000
vt 0.000000 0.000000
vt 0.028600 0.472820
vt 0.022300 0.473900
vt 0.000000 0.000000
vt 0.000000 0.000000
vt 0.000000 0.000000
vt 0.000000 0.000000
vn 0.6182 -0.5481 -0.5633
vn 0.2828 -0.6873 -0.6690
vn 0.2183 0.8123 -0.5409
vn 0.6313 0.6241 -0.4605
vn -0.2578 -0.7313 0.6315
vn -0.4794 -0.7364 0.4774
vn 0.5236 -0.6747 -0.5202
vn 0.6715 -0.6833 -0.2867
vn 0.5378 0.8154 -0.2141
vn 0.4002 0.8228 -0.4036
vn -0.6340 -0.7294 0.2570
vn -0.5843 -0.6019 -0.5444
vn 0.5631 -0.5483 -0.6183
vn 0.4607 0.6240 -0.6312
vn -0.6849 0.5296 -0.5004
vn 0.4973 0.5287 0.6878
vn 0.5419 -0.6018 0.5866
vn -0.3146 0.5963 0.7385
vn -0.5706 0.5887 0.5726
vn -0.7404 0.5965 0.3098
usemtl (null)
s 1
f 6/1/1 7/2/2 1/3/3 2/4/4
f 7/5/2 13/6/5 15/7/6 8/8/7
f 8/9/7 9/10/8 4/11/9 3/12/10
f 9/13/8 17/14/11 19/15/12 10/16/13
f 5/17/14 10/18/13 19/19/12 20/20/15
f 6/1/1 2/4/4 11/21/16 12/22/17
f 13/23/5 14/24/18 16/25/19 15/26/6
f 11/21/16 14/27/18 13/23/5 12/22/17
f 1/28/3 14/27/18 11/21/16 2/4/4
f 3/29/10 16/30/19 14/27/18 1/28/3
f 7/5/2 6/1/1 12/22/17 13/6/5
f 17/31/11 18/32/20 20/20/15 19/19/12
f 16/30/19 18/33/20 17/31/11 15/26/6
f 4/34/9 18/33/20 16/30/19 3/29/10
f 5/35/14 20/36/15 18/33/20 4/34/9
f 9/13/8 8/8/7 15/26/6 17/14/11
f 1/28/3 7/5/2 8/9/7 3/29/10
f 4/34/9 9/13/8 10/18/13 5/35/14
