# Blender v2.82 (sub 7) OBJ File: ''
# www.blender.org
mtllib Quaterpipe_Corner_Outer_1_Grind.mtl
g Quaterpipe_Corner_Outer_1_Grind
v -0.000000 1.928946 -1.032589
v 0.000000 2.000000 -1.025000
v 1.032590 1.928946 0.000000
v 1.025000 2.000000 0.000000
v 0.991892 2.000000 -0.607828
v 0.863950 2.000000 -0.873950
v 0.602811 2.000000 -1.007182
v 0.605774 1.928946 -1.013659
v 0.868711 1.928946 -0.878706
v 0.998344 1.928946 -0.610816
v 0.560424 1.929408 -0.925038
v 0.823361 1.929408 -0.790085
v 0.818600 2.000462 -0.785329
v 0.557461 2.000462 -0.918561
v 0.898990 1.928946 -0.605325
v 0.933236 1.928946 0.005491
v 0.925646 2.000000 0.005492
v 0.892538 2.000000 -0.602336
v 0.000000 1.928257 -0.933155
v 0.000000 1.999311 -0.925565
vt 0.000000 0.000000
vt 0.000000 0.000000
vt 0.000000 0.000000
vt 0.000000 0.000000
vt 0.559520 0.287000
vt 0.559520 0.287000
vt 0.528320 0.296960
vt 0.528320 0.296960
vt 0.493140 0.304120
vt 0.492800 0.298400
vt 0.508600 0.296000
vt 0.509540 0.301640
vt 0.410680 0.286900
vt 0.412400 0.281500
vt 0.443200 0.291400
vt 0.441780 0.296940
vt 0.459960 0.301640
vt 0.476460 0.304220
vt 0.476800 0.298500
vt 0.460900 0.296000
vt 0.000000 0.000000
vt 0.000000 0.000000
vt 0.000000 0.000000
vt 0.000000 0.000000
vt 0.000000 0.000000
vt 0.476460 0.304220
vt 0.459960 0.301640
vt 0.557800 0.281600
vt 0.526900 0.291400
vt 0.000000 0.000000
vt 0.000000 0.000000
vt 0.000000 0.000000
vt 0.000000 0.000000
vt 0.410680 0.286900
vt 0.412400 0.281500
vt 0.000000 0.000000
vt 0.000000 0.000000
vt 0.000000 0.000000
vt 0.000000 0.000000
vt 0.000000 0.000000
vn 0.6908 0.7012 -0.1764
vn 0.5260 0.6777 -0.5138
vn -0.4735 0.7665 0.4339
vn -0.6844 0.7131 0.1522
vn 0.6393 -0.5495 0.5379
vn -0.5111 -0.6002 0.6153
vn -0.6139 -0.7771 0.1389
vn 0.7525 -0.6288 -0.1960
vn 0.5695 -0.6053 -0.5562
vn -0.5634 -0.5483 -0.6181
vn -0.5755 0.6014 -0.5542
vn 0.1772 0.6966 -0.6952
vn 0.1963 -0.6241 -0.7563
vn -0.1486 -0.7919 0.5923
vn -0.4215 -0.8203 0.3865
vn -0.1628 0.7302 0.6636
vn 0.5760 0.6035 0.5514
vn -0.5770 0.5524 0.6016
vn -0.5861 -0.6037 0.5405
vn -0.5759 0.5505 0.6044
usemtl (null)
s 1
f 5/1/1 6/2/2 13/3/3 18/4/4
f 3/5/5 16/6/6 15/7/7 10/8/8
f 9/9/9 6/10/2 5/11/1 10/12/8
f 1/13/10 2/14/11 7/15/12 8/16/13
f 11/17/14 12/18/15 13/19/3 14/20/16
f 5/1/1 4/21/17 3/22/5 10/23/8
f 7/24/12 14/25/16 13/3/3 6/2/2
f 9/26/9 12/18/15 11/17/14 8/27/13
f 15/7/7 16/6/6 17/28/18 18/29/4
f 4/21/17 17/30/18 16/31/6 3/22/5
f 7/24/12 6/2/2 9/32/9 8/33/13
f 5/1/1 18/4/4 17/30/18 4/21/17
f 2/14/11 1/13/10 19/34/19 20/35/20
f 12/18/15 15/7/7 18/29/4 13/3/3
f 12/36/15 9/32/9 10/23/8 15/37/7
f 2/14/11 20/35/20 14/25/16 7/24/12
f 11/17/14 14/25/16 20/35/20 19/34/19
f 19/38/19 1/39/10 8/33/13 11/40/14
